<?xml version="1.0" encoding="UTF-8" standalone="no"?><!DOCTYPE svg PUBLIC "-//W3C//DTD SVG 1.1//EN" "http://www.w3.org/Graphics/SVG/1.1/DTD/svg11.dtd"><svg width="100%" height="100%" viewBox="0 0 1043 1573" version="1.1" xmlns="http://www.w3.org/2000/svg" xmlns:xlink="http://www.w3.org/1999/xlink" xml:space="preserve" xmlns:serif="http://www.serif.com/" style="fill-rule:evenodd;clip-rule:evenodd;stroke-linecap:round;stroke-linejoin:round;stroke-miterlimit:1.5;"><g><path d="M573.693,306.208c126.261,-202.713 266.177,-166.997 307.984,-38.854c41.809,128.143 -14.494,348.714 -140.758,551.426c-91.199,152.927 -259.35,286.211 -392.439,369.71c-76.786,-137.072 -160.482,-334.643 -167.226,-512.571c-13.655,-238.428 42.649,-458.998 140.758,-551.426c98.11,-92.427 238.026,-56.712 251.681,181.716Z" style="fill:#ffd800;stroke:#000;stroke-width:75px;"/><path d="M574.645,305.088c-27.698,287.057 -71.434,275.24 -155.344,551.817c-10.506,34.63 -19.107,70.057 -33.425,103.293c-2.472,5.738 -0.64,-24.22 -3.112,-18.483" style="fill:none;stroke:#000;stroke-width:62.5px;"/><path d="M144.842,738.605l-51.561,0" style="fill:none;stroke:#000;stroke-width:62.5px;"/><path d="M142.921,515.499c-7.473,0.447 -34.168,-5.332 -66.927,-25.494" style="fill:none;stroke:#000;stroke-width:62.5px;"/><path d="M199.552,266.979c-6.45,-11.016 -9.572,-51.467 -79.461,-76.045" style="fill:none;stroke:#000;stroke-width:62.5px;"/><path d="M319.446,92.108c2.899,-57.566 2.152,-57.892 4.059,-60.858" style="fill:none;stroke:#000;stroke-width:62.5px;"/><path d="M472.526,65.139c24.224,-9.96 21.798,-12.537 41.899,-28.186" style="fill:none;stroke:#000;stroke-width:62.5px;"/><path d="M548.126,141.848c36.397,-0.97 42.114,1.786 55.68,-31.968" style="fill:none;stroke:#000;stroke-width:62.5px;"/><path d="M716.195,156.975c-2.079,-18.877 -4.158,-37.754 -6.237,-56.63" style="fill:none;stroke:#000;stroke-width:62.5px;"/><path d="M816.11,178.657c31.835,-35.504 39.933,-42.708 43.73,-46.086" style="fill:none;stroke:#000;stroke-width:62.5px;"/><path d="M904.669,274.048l36.651,-1.01" style="fill:none;stroke:#000;stroke-width:62.5px;"/><path d="M899.175,433.395l112.291,0" style="fill:none;stroke:#000;stroke-width:62.5px;"/><path d="M899.828,548.656l31.939,0" style="fill:none;stroke:#000;stroke-width:62.5px;"/><path d="M829.129,698.3l38.651,0" style="fill:none;stroke:#000;stroke-width:62.5px;"/><path d="M713.017,870.657l48.195,0" style="fill:none;stroke:#000;stroke-width:62.5px;"/><path d="M601.865,370.894l14.039,0" style="fill:none;stroke:#000;stroke-width:62.5px;"/><path d="M532.414,607.603c9.056,0.597 18.111,1.195 27.167,1.792" style="fill:none;stroke:#000;stroke-width:62.5px;"/><path d="M473.031,774.662c20.87,19.578 19.485,19.567 36.453,42.126" style="fill:none;stroke:#000;stroke-width:62.5px;"/><path d="M650.872,184.122c-1.287,-20.587 -3.648,-19.551 -10.118,-39.206" style="fill:none;stroke:#000;stroke-width:62.5px;"/><path d="M171.643,410.901c-11.122,-2.869 -38.017,-23.159 -55.888,-33.998" style="fill:none;stroke:#000;stroke-width:62.5px;"/><path d="M237.193,148.768c-3.103,-18.252 -4.756,-17.09 -14.623,-32.147" style="fill:none;stroke:#000;stroke-width:62.5px;"/><path d="M155.693,625.81c-13.646,-0.525 -27.322,0.525 -40.968,0c-1.677,-0.065 -1.547,-0.15 -20.88,-2.02" style="fill:none;stroke:#000;stroke-width:62.5px;"/><path d="M572.877,508.698l27.474,0" style="fill:none;stroke:#000;stroke-width:62.5px;"/><path d="M0,840.132l832.195,190.951l-343.166,541.126l-416.097,-95.475l-72.931,-636.602Z" style="fill:#741600;"/></g></svg>